<?xml version="1.0" standalone="no"?>
<!DOCTYPE svg PUBLIC "-//W3C//DTD SVG 20010904//EN"
 "http://www.w3.org/TR/2001/REC-SVG-20010904/DTD/svg10.dtd">
<svg version="1.0" xmlns="http://www.w3.org/2000/svg"
 width="4503.000000pt" height="4503.000000pt" viewBox="0 0 4503.000000 4503.000000"
 preserveAspectRatio="xMidYMid meet">
<metadata>
Created by potrace 1.14, written by Peter Selinger 2001-2017
</metadata>
<g transform="translate(0.000000,4503.000000) scale(0.100000,-0.100000)"
fill="#000000" stroke="none">
<path d="M21687 45014 c-1 -1 -85 -5 -187 -9 -102 -3 -203 -8 -225 -10 -22 -2
-94 -6 -160 -10 -66 -3 -145 -8 -175 -10 -30 -3 -98 -7 -150 -10 -52 -3 -111
-7 -130 -10 -32 -4 -108 -11 -215 -20 -190 -16 -262 -23 -410 -41 -27 -3 -66
-8 -85 -10 -19 -2 -53 -6 -75 -8 -22 -3 -67 -8 -100 -11 -53 -6 -299 -39 -365
-50 -31 -5 -92 -13 -145 -19 -40 -5 -463 -72 -500 -80 -11 -2 -40 -7 -65 -11
-47 -7 -297 -51 -340 -60 -14 -3 -41 -8 -60 -11 -19 -4 -44 -8 -55 -11 -11 -2
-76 -14 -145 -28 -69 -13 -199 -40 -289 -60 -91 -20 -196 -43 -235 -51 -39 -9
-78 -17 -86 -19 -8 -2 -46 -11 -85 -20 -348 -81 -1050 -264 -1127 -294 -16 -6
-28 -9 -28 -6 0 2 -15 -2 -34 -10 -18 -8 -44 -16 -57 -19 -31 -7 -203 -58
-207 -61 -2 -2 18 -40 45 -85 72 -122 152 -263 248 -435 170 -308 383 -731
485 -965 18 -41 42 -97 55 -125 38 -84 105 -244 105 -250 0 -3 9 -24 19 -48
11 -23 43 -105 71 -182 28 -77 55 -149 60 -160 5 -11 14 -36 19 -55 5 -19 26
-82 46 -140 63 -185 170 -568 205 -735 41 -194 76 -382 85 -448 2 -16 6 -40 9
-55 3 -15 8 -49 11 -77 3 -27 8 -68 11 -90 11 -92 13 -113 19 -170 12 -119 14
-152 20 -285 7 -145 13 -430 9 -430 -1 0 -33 39 -71 88 -37 48 -73 94 -80 102
-7 8 -116 148 -244 310 -127 162 -241 306 -252 320 -12 14 -35 43 -52 65 -16
22 -35 47 -42 55 -25 29 -255 326 -296 380 -22 30 -43 57 -47 60 -11 9 -505
673 -607 815 -337 474 -697 1033 -910 1415 -106 190 -178 320 -218 395 -55
105 -127 239 -129 242 -2 3 -180 -66 -198 -77 -10 -5 -22 -10 -27 -10 -8 0
-387 -153 -446 -179 -11 -6 -65 -28 -120 -51 -55 -23 -118 -50 -140 -60 -22
-10 -94 -42 -160 -70 -350 -152 -1052 -490 -1335 -642 -47 -25 -130 -69 -185
-98 -55 -29 -120 -64 -145 -78 -25 -14 -62 -34 -84 -46 l-38 -21 7 -205 c7
-229 12 -322 30 -557 12 -153 30 -323 50 -483 2 -14 7 -54 10 -90 4 -36 9 -68
10 -71 2 -3 7 -28 11 -55 3 -27 8 -58 10 -69 2 -10 6 -37 9 -60 11 -76 88
-455 101 -497 2 -9 7 -26 9 -38 2 -12 7 -30 10 -40 3 -10 7 -27 9 -37 5 -20
37 -140 61 -223 9 -30 17 -62 19 -70 2 -8 11 -34 19 -58 8 -24 13 -41 10 -39
-2 3 -33 45 -68 94 -36 48 -72 97 -80 108 -75 94 -585 896 -585 920 0 2 -13
26 -28 52 -82 139 -250 458 -380 718 -52 105 -96 191 -97 193 -4 5 -423 -259
-680 -430 -381 -252 -915 -631 -1231 -875 -55 -43 -139 -107 -185 -143 -69
-53 -409 -326 -484 -388 -11 -10 -44 -37 -74 -62 -30 -25 -62 -52 -71 -60 -9
-8 -67 -58 -130 -110 -90 -76 -342 -295 -396 -345 -6 -5 -44 -39 -84 -75 -40
-36 -90 -81 -110 -100 -21 -19 -91 -84 -156 -145 -342 -317 -865 -840 -1160
-1160 -135 -147 -140 -153 -214 -236 -36 -40 -72 -79 -80 -89 -8 -9 -46 -52
-85 -95 -38 -44 -79 -89 -90 -101 -11 -11 -31 -34 -45 -50 -59 -70 -128 -151
-146 -172 -10 -13 -27 -33 -37 -45 -64 -75 -98 -115 -117 -137 -68 -77 -439
-544 -552 -695 -4 -5 -20 -26 -35 -45 -23 -28 -111 -145 -155 -205 -4 -5 -18
-23 -31 -40 -69 -90 -337 -465 -502 -705 -442 -641 -942 -1466 -1314 -2170
-89 -167 -380 -750 -443 -885 -26 -55 -70 -149 -98 -210 -29 -60 -95 -207
-147 -325 -52 -118 -103 -233 -113 -255 -29 -65 -138 -331 -192 -465 -27 -69
-56 -140 -65 -159 -8 -18 -19 -45 -23 -60 -5 -14 -43 -116 -85 -226 -133 -348
-336 -939 -440 -1280 -90 -296 -153 -511 -216 -745 -7 -25 -14 -49 -15 -55 -2
-5 -8 -28 -14 -50 -6 -22 -12 -47 -15 -55 -26 -100 -81 -320 -80 -320 2 0 29
33 61 73 32 39 63 77 69 83 5 6 28 32 50 58 22 27 49 58 60 71 19 22 112 127
148 169 40 45 166 185 237 261 141 151 536 540 675 665 77 69 145 129 151 135
6 5 35 30 64 55 30 25 70 59 90 76 127 110 390 312 596 458 82 58 154 110 161
116 7 5 14 10 17 10 3 0 45 26 93 59 139 92 284 180 473 285 96 54 182 101
190 106 29 17 376 188 444 220 363 164 934 375 1211 446 6 1 57 16 115 32 91
26 325 87 370 97 19 4 80 18 195 46 50 11 101 23 115 25 14 3 57 11 95 19 39
8 84 16 100 19 17 3 55 10 85 16 72 15 88 18 130 24 19 3 46 8 59 10 12 3 42
8 65 10 22 3 52 8 66 10 22 4 65 10 148 21 12 2 50 6 85 10 34 4 69 8 77 10 8
2 51 6 95 10 44 4 96 8 115 10 124 14 305 20 580 19 330 0 415 -4 640 -30 54
-6 71 -8 160 -19 44 -5 251 -40 300 -50 14 -3 39 -8 55 -11 17 -3 35 -7 40 -8
6 -2 28 -6 50 -11 69 -13 71 -22 9 -30 -33 -5 -61 -9 -64 -10 -3 -1 -25 -5
-50 -9 -61 -11 -373 -82 -443 -101 -31 -8 -83 -22 -114 -30 -197 -52 -699
-214 -1053 -340 -41 -14 -100 -34 -130 -45 -30 -10 -154 -53 -275 -95 -121
-42 -251 -87 -290 -100 -209 -70 -455 -162 -552 -206 -24 -10 -45 -19 -48 -19
-3 0 -39 -16 -81 -35 -41 -19 -77 -35 -79 -35 -6 0 -195 -89 -340 -160 -585
-287 -1197 -662 -1710 -1049 -55 -42 -109 -83 -120 -92 -11 -9 -69 -56 -130
-105 -258 -205 -589 -518 -797 -752 -23 -26 -167 -198 -202 -242 -66 -83 -256
-362 -256 -377 0 -3 -6 -14 -14 -22 -26 -30 -153 -285 -216 -436 -93 -224
-150 -364 -150 -371 0 -5 52 0 110 11 27 5 80 13 135 21 28 3 59 8 70 10 31 6
76 13 120 19 22 3 51 7 65 10 14 2 43 7 65 10 22 3 65 10 95 15 55 9 92 16
153 25 17 3 43 7 57 10 14 3 39 7 55 9 17 3 98 16 180 31 83 14 164 28 180 31
34 5 210 36 365 64 58 11 119 21 135 24 17 3 84 14 150 26 66 11 158 27 205
35 47 8 96 17 110 20 23 4 44 7 138 20 20 3 75 12 122 20 117 19 138 22 275
40 66 9 131 18 145 20 36 5 106 13 170 20 30 3 75 8 100 10 243 27 607 36 867
21 72 -4 140 -8 150 -10 10 -2 47 -7 83 -10 161 -17 555 -101 545 -116 -3 -4
-26 -11 -52 -14 -79 -12 -92 -15 -243 -51 -736 -179 -1352 -526 -2085 -1174
-66 -58 -122 -108 -125 -111 -3 -3 -27 -25 -55 -49 -87 -77 -218 -206 -280
-276 -33 -37 -65 -73 -71 -79 -5 -6 -50 -60 -98 -121 -48 -60 -93 -117 -99
-125 -59 -74 -259 -356 -378 -535 -136 -204 -356 -550 -372 -585 -4 -8 -25
-44 -48 -80 -23 -36 -53 -85 -67 -110 -13 -25 -28 -49 -32 -55 -17 -22 -295
-511 -375 -660 -222 -412 -412 -785 -552 -1085 -203 -433 -275 -611 -405
-1005 -122 -366 -119 -357 -107 -349 5 3 60 21 122 39 397 119 756 244 849
295 10 6 23 10 28 10 6 0 54 20 107 45 52 25 98 45 100 45 3 0 38 15 77 34 39
19 125 60 191 91 150 71 583 287 775 387 80 41 219 114 310 161 91 47 219 113
285 147 285 149 914 463 1075 537 321 149 352 163 357 163 2 0 28 11 56 24 29
13 93 40 142 60 50 20 99 41 110 46 50 22 301 110 405 142 118 37 130 40 385
108 83 22 188 52 235 66 235 70 489 149 790 244 185 58 372 117 590 183 432
132 938 258 1258 312 17 3 46 7 62 10 278 48 534 73 925 90 88 4 183 9 210 10
66 3 457 16 620 21 185 5 1036 4 1185 -1 166 -5 399 -15 480 -20 36 -2 117 -6
180 -10 63 -3 131 -8 150 -10 19 -2 71 -7 115 -10 129 -10 187 -15 325 -30 19
-2 62 -7 95 -10 33 -3 76 -8 95 -11 19 -3 53 -7 75 -10 86 -11 112 -14 185
-24 42 -6 85 -12 96 -14 10 -2 39 -7 64 -10 86 -12 343 -58 474 -85 54 -12
108 -23 120 -25 39 -7 280 -67 391 -98 1198 -326 2001 -879 2381 -1637 29 -58
62 -133 75 -166 12 -33 25 -64 29 -70 10 -13 46 -155 55 -218 49 -335 -82
-722 -382 -1134 -40 -56 -79 -108 -86 -115 -7 -7 -34 -40 -60 -73 -171 -212
-522 -559 -823 -815 -16 -14 -56 -48 -89 -76 -73 -62 -329 -268 -485 -390 -63
-50 -326 -250 -585 -444 -722 -543 -838 -633 -1060 -826 -142 -123 -163 -143
-410 -379 -242 -231 -275 -263 -275 -267 0 -2 64 -2 143 0 262 8 1849 7 2077
-1 355 -12 588 -24 805 -42 33 -2 101 -7 150 -10 50 -3 106 -8 125 -10 19 -2
67 -7 105 -10 39 -4 86 -8 105 -11 19 -2 64 -6 100 -9 36 -3 76 -8 90 -10 14
-2 50 -7 80 -10 51 -5 99 -11 160 -20 14 -2 48 -7 75 -10 28 -3 61 -7 75 -10
14 -2 41 -6 60 -9 244 -34 685 -115 880 -161 8 -2 58 -13 110 -25 52 -11 165
-39 250 -62 85 -22 160 -41 165 -43 110 -23 736 -226 850 -274 11 -5 34 -14
50 -20 50 -17 377 -150 420 -170 41 -19 118 -54 190 -86 61 -27 439 -216 530
-265 117 -63 428 -240 445 -254 8 -7 49 -32 90 -57 41 -24 149 -93 240 -153
749 -494 1400 -1058 2020 -1746 367 -408 760 -920 1107 -1440 80 -121 232
-357 258 -402 6 -10 51 -84 100 -165 50 -81 92 -152 94 -158 2 -5 12 -21 21
-35 9 -14 31 -50 47 -80 17 -30 68 -120 112 -199 45 -80 105 -188 133 -240 29
-53 69 -127 90 -166 52 -96 391 -773 460 -920 117 -248 149 -317 263 -570 64
-143 122 -273 130 -290 39 -88 217 -504 282 -660 41 -99 81 -193 88 -210 95
-214 336 -887 456 -1270 55 -178 105 -344 114 -385 2 -8 22 -79 44 -156 38
-134 129 -477 136 -513 1 -9 8 -36 15 -61 7 -25 14 -52 15 -60 2 -8 13 -55 24
-105 73 -314 84 -365 135 -620 39 -194 40 -197 56 -283 5 -31 12 -68 15 -82
17 -89 94 -557 101 -615 2 -22 9 -62 14 -90 5 -27 12 -72 15 -100 3 -27 8 -61
10 -75 5 -32 32 -248 40 -320 4 -30 8 -66 10 -80 2 -14 7 -54 10 -90 4 -36 9
-76 10 -90 2 -14 6 -56 10 -95 3 -38 8 -83 10 -100 2 -16 6 -73 10 -125 3 -52
8 -106 10 -120 3 -14 7 -66 10 -115 3 -50 8 -109 10 -132 2 -23 7 -102 10
-175 4 -73 9 -158 10 -188 11 -169 18 -468 19 -798 1 -241 5 -372 11 -371 22
3 367 104 480 141 50 16 97 31 105 33 114 28 855 288 1135 397 28 11 64 24 80
29 17 5 35 12 41 17 11 7 248 473 333 654 23 49 58 125 80 170 21 46 53 113
70 150 40 86 241 556 241 563 0 3 8 25 18 48 11 23 34 80 52 127 18 47 38 99
45 115 7 17 31 84 55 150 23 66 45 129 50 140 75 185 299 970 344 1205 3 14 8
36 11 50 3 14 10 48 15 75 6 28 13 61 16 75 13 64 35 178 40 210 3 19 7 42 9
50 2 8 7 31 10 50 3 19 7 46 10 60 3 14 7 39 9 55 22 153 27 179 29 180 34 7
138 72 218 136 57 45 106 85 109 89 3 3 19 16 35 29 26 20 115 97 191 166 150
136 202 185 292 270 70 67 112 100 126 99 12 -1 62 -9 111 -19 406 -75 523
-89 755 -89 111 0 317 11 329 18 3 2 35 7 70 10 36 4 67 9 70 10 3 2 31 7 61
11 30 4 58 9 61 11 3 2 19 6 35 9 26 4 133 31 159 39 6 1 30 8 55 15 123 35
337 113 450 163 174 79 450 223 554 291 19 12 70 44 113 71 144 91 417 289
598 435 99 79 185 149 191 155 6 6 33 29 59 51 27 22 53 45 59 51 6 5 49 44
96 84 47 41 94 84 106 95 12 11 70 65 130 120 60 55 149 139 199 187 49 47 91
85 93 84 1 -2 -9 -39 -22 -82 -33 -103 -114 -386 -120 -416 -3 -13 -26 -111
-51 -218 -26 -107 -48 -202 -50 -210 -2 -8 -19 -82 -39 -163 -20 -82 -38 -158
-40 -170 -2 -12 -12 -51 -21 -87 -9 -36 -19 -74 -21 -85 -2 -11 -6 -32 -10
-47 -3 -15 -6 -31 -6 -35 0 -5 -4 -18 -9 -31 -5 -13 -11 -35 -14 -50 -3 -15
-13 -63 -24 -107 l-19 -80 22 28 c33 45 236 310 249 327 7 8 48 62 92 120 44
58 83 110 88 115 4 6 94 123 199 260 266 348 371 469 597 689 109 106 95 94
192 176 117 101 125 107 229 185 149 111 358 235 436 259 l22 7 0 -561 c-1
-308 2 -563 5 -566 3 -3 19 23 37 58 18 34 50 96 72 138 90 168 112 207 138
255 15 28 47 86 70 130 24 44 55 103 70 130 15 28 46 86 70 130 24 44 62 114
85 155 22 41 51 95 63 120 13 25 27 52 32 60 9 15 95 176 250 470 69 131 421
839 480 965 208 445 438 1011 546 1345 13 41 26 80 28 85 2 6 4 13 5 17 1 4 9
27 17 50 14 41 80 288 88 332 2 12 7 39 11 61 4 22 10 49 12 60 24 116 46 257
67 445 4 30 9 71 11 90 3 19 7 71 10 115 3 44 8 100 10 125 24 263 24 1110 0
1650 -3 75 -13 340 -20 540 -2 58 -7 285 -10 505 -8 577 -15 834 -30 1086 -14
228 -30 446 -40 539 -3 25 -8 77 -11 115 -10 103 -11 115 -17 170 -4 28 -11
95 -17 150 -6 55 -13 111 -15 125 -2 14 -11 79 -20 145 -9 66 -18 131 -20 145
-2 14 -7 43 -10 65 -12 75 -34 210 -50 300 -9 50 -18 104 -21 120 -4 23 -53
263 -90 441 -11 56 -68 290 -95 389 -172 648 -356 1149 -609 1660 -115 231
-141 280 -218 410 -19 33 -40 69 -46 80 -74 130 -348 522 -420 602 -6 6 -27
30 -46 54 -166 202 -368 407 -581 589 -79 68 -169 144 -199 170 -267 230 -446
377 -448 370 -2 -5 6 -40 17 -77 18 -58 46 -160 116 -417 7 -28 38 -141 68
-251 66 -242 69 -255 74 -280 2 -11 8 -38 14 -60 6 -22 13 -47 14 -56 2 -9 12
-59 24 -110 17 -79 37 -190 65 -354 10 -62 45 -343 51 -410 3 -38 8 -88 10
-110 27 -264 27 -937 0 -1240 -2 -27 -7 -79 -10 -115 -6 -79 -13 -142 -25
-240 -5 -41 -12 -93 -14 -115 -7 -55 -25 -175 -30 -201 -2 -12 -7 -45 -11 -75
-4 -30 -8 -56 -10 -59 -2 -3 -6 -27 -9 -55 -4 -27 -9 -57 -11 -65 -3 -8 -7
-31 -9 -50 -3 -19 -12 -71 -21 -115 -10 -44 -19 -91 -22 -105 -2 -13 -11 -56
-19 -95 -9 -38 -18 -81 -20 -95 -2 -14 -14 -65 -25 -115 -12 -49 -23 -98 -25
-108 -6 -24 -12 -54 -24 -112 -6 -27 -14 -55 -18 -62 -10 -15 -181 64 -303
142 -272 172 -551 449 -832 825 -92 122 -280 401 -321 475 -9 17 -34 59 -56
94 -22 34 -40 64 -40 66 0 2 -19 36 -43 77 -42 70 -92 160 -165 298 -41 76
-292 578 -292 584 0 2 -22 50 -48 107 -130 277 -278 620 -404 934 -33 83 -66
164 -73 180 -8 17 -35 84 -60 150 -25 66 -55 140 -65 165 -20 46 -57 141 -130
335 -22 61 -48 125 -57 144 -8 18 -19 45 -23 60 -4 14 -47 125 -94 246 -85
216 -92 235 -114 285 -6 14 -36 84 -66 155 -59 143 -204 479 -242 563 -42 92
-229 533 -269 632 -21 52 -43 109 -51 125 -74 172 -227 634 -279 845 -9 36
-21 83 -27 105 -5 22 -12 51 -14 65 -3 14 -13 66 -24 115 -10 50 -21 115 -25
145 -3 30 -8 62 -10 70 -2 8 -6 38 -10 65 -3 28 -7 66 -10 85 -24 197 -25 657
-1 835 2 11 6 52 11 90 4 39 9 77 10 85 2 8 6 44 11 80 4 36 8 67 9 70 1 3 5
30 9 60 9 63 56 333 71 410 3 14 8 36 10 50 3 14 7 36 10 50 3 14 10 45 15 70
5 25 28 126 50 225 23 99 48 209 56 245 8 36 16 72 18 80 23 95 57 239 61 255
2 11 32 139 65 285 34 146 64 274 66 285 2 11 8 43 14 70 6 28 12 61 15 75 3
14 11 59 20 100 8 41 17 89 20 105 2 17 7 41 10 55 7 32 61 380 70 445 3 28 8
64 10 80 4 27 8 68 20 210 14 156 21 280 30 515 4 85 8 196 10 245 25 611 25
1820 0 2310 -3 50 -7 149 -10 220 -3 72 -7 164 -10 205 -3 41 -7 112 -10 158
-13 213 -16 250 -20 297 -3 28 -7 84 -10 125 -3 41 -7 95 -9 120 -3 25 -10
104 -16 175 -6 72 -13 144 -15 160 -2 17 -6 57 -10 90 -3 33 -8 78 -10 100 -3
22 -7 63 -10 90 -3 28 -17 140 -31 250 -14 110 -27 216 -30 235 -2 19 -6 46
-9 60 -2 14 -7 48 -10 75 -3 28 -8 62 -11 77 -3 15 -7 39 -9 55 -9 68 -62 388
-80 486 -3 15 -7 37 -9 50 -16 89 -32 174 -46 242 -12 60 -19 91 -25 125 -29
158 -112 514 -180 785 -372 1460 -941 2775 -1688 3895 -73 110 -258 374 -289
415 -5 6 -25 33 -45 60 -130 176 -493 620 -598 731 -5 6 -55 60 -110 119 -155
169 -159 172 -301 231 -71 30 -138 59 -149 64 -183 83 -1191 467 -1202 457 -1
-2 13 -29 33 -61 79 -132 192 -362 246 -501 82 -212 133 -365 183 -550 20 -71
40 -146 46 -165 10 -37 74 -323 83 -375 3 -16 8 -41 11 -55 3 -14 12 -68 21
-120 9 -52 18 -104 20 -115 7 -37 23 -139 29 -190 3 -27 10 -75 15 -105 5 -30
12 -84 15 -120 3 -36 8 -72 10 -80 4 -17 13 -97 20 -185 3 -33 7 -76 10 -95 2
-19 6 -62 9 -95 9 -106 18 -209 21 -240 2 -16 6 -77 10 -135 3 -58 8 -125 10
-150 2 -25 7 -94 10 -155 3 -60 8 -141 10 -180 2 -38 6 -131 10 -205 3 -74 8
-164 10 -200 16 -277 20 -417 19 -790 0 -366 -7 -662 -19 -790 -2 -19 -6 -84
-10 -145 -4 -60 -8 -126 -10 -145 -2 -19 -6 -71 -10 -115 -3 -44 -8 -91 -10
-105 -2 -14 -6 -59 -10 -101 -3 -42 -7 -85 -9 -96 -2 -10 -7 -50 -10 -88 -4
-39 -8 -81 -11 -95 -2 -14 -7 -50 -10 -80 -3 -30 -8 -66 -10 -80 -2 -14 -7
-45 -10 -70 -4 -25 -8 -56 -10 -70 -2 -14 -7 -49 -10 -79 -4 -30 -9 -63 -11
-75 -2 -11 -6 -38 -9 -61 -4 -22 -17 -105 -30 -185 -14 -80 -27 -163 -31 -185
-9 -59 -54 -288 -57 -291 -2 -2 -40 138 -72 266 -2 8 -18 62 -35 120 -18 58
-35 119 -39 135 -33 126 -256 743 -325 899 -8 17 -28 65 -44 106 -17 41 -39
93 -48 115 -10 22 -18 42 -19 45 -3 10 -37 85 -71 158 -19 41 -34 75 -34 77 0
2 -29 65 -65 140 -36 76 -65 139 -65 142 0 12 -354 710 -440 868 -15 28 -51
95 -80 150 -29 55 -56 105 -60 110 -4 6 -23 39 -43 75 -51 95 -140 253 -232
415 -32 55 -68 119 -81 142 -13 23 -54 93 -90 155 -37 62 -74 127 -84 143 -9
17 -32 55 -50 85 -18 30 -38 64 -44 75 -7 11 -34 57 -61 103 -28 46 -57 96
-66 111 -77 131 -808 1345 -828 1376 -14 22 -31 49 -38 60 -112 191 -568 884
-772 1173 -75 107 -143 203 -151 215 -61 90 -560 749 -580 767 -3 3 -44 52
-90 110 -45 58 -88 110 -94 115 -6 6 -23 26 -37 45 -15 19 -40 50 -56 67 -16
18 -63 73 -104 122 -41 50 -80 92 -88 96 -14 5 -102 19 -196 30 -72 8 -134 16
-153 20 -10 1 -53 6 -97 9 -44 4 -87 9 -95 11 -8 2 -42 7 -75 10 -33 3 -78 8
-100 10 -22 2 -71 7 -110 10 -38 3 -90 8 -115 10 -25 3 -76 7 -114 10 -38 3
-88 7 -110 10 -45 5 -144 12 -281 20 -49 3 -121 8 -160 10 -38 3 -116 7 -172
11 l-102 6 96 -214 c52 -117 107 -242 122 -278 16 -36 74 -173 130 -305 152
-355 181 -424 181 -430 0 -4 9 -26 20 -50 21 -46 199 -494 271 -680 45 -118
53 -139 148 -400 34 -93 68 -186 76 -205 49 -122 324 -933 374 -1105 13 -44
27 -84 30 -90 3 -5 6 -14 7 -20 2 -5 37 -122 79 -260 42 -137 80 -266 85 -285
4 -19 28 -105 53 -190 52 -184 85 -304 126 -461 32 -123 111 -434 116 -459 2
-8 17 -71 34 -140 16 -69 32 -136 35 -150 7 -32 35 -158 41 -185 23 -97 110
-517 121 -585 2 -14 9 -45 14 -70 19 -90 84 -458 95 -535 3 -23 8 -52 10 -65
6 -30 22 -130 30 -185 3 -22 8 -55 10 -72 6 -42 15 -102 20 -129 2 -12 6 -48
10 -80 l7 -59 -87 155 c-48 85 -107 193 -133 240 -25 47 -58 107 -74 133 -15
26 -28 49 -28 51 0 2 -16 33 -36 68 -54 95 -75 133 -279 503 -103 187 -206
374 -230 415 -23 41 -58 104 -77 140 -20 36 -49 90 -65 120 -17 30 -77 138
-133 240 -57 102 -117 210 -134 240 -16 30 -42 78 -58 105 -15 28 -71 140
-125 250 -144 294 -761 1527 -849 1695 -41 80 -114 219 -161 310 -95 182 -129
246 -243 460 -42 80 -101 190 -130 245 -70 132 -118 221 -145 270 -21 38 -49
91 -140 260 -21 39 -84 156 -140 260 -56 105 -118 219 -137 255 -20 36 -46 85
-60 110 -14 25 -47 86 -73 135 -157 292 -411 729 -561 961 l-52 81 -76 -1
c-43 0 -78 -1 -79 -2z m3873 -22558 c14 -2 48 -7 75 -11 292 -38 638 -166 845
-314 54 -39 142 -104 169 -126 49 -39 228 -221 267 -270 21 -27 41 -52 45 -55
3 -3 21 -27 40 -55 18 -27 37 -52 40 -55 4 -3 21 -30 40 -60 18 -30 44 -70 56
-89 43 -63 171 -325 221 -451 112 -282 227 -710 257 -955 3 -27 8 -63 10 -80
12 -80 30 -257 40 -395 19 -253 21 -288 30 -465 3 -71 8 -166 10 -210 3 -44 7
-141 10 -215 2 -74 7 -193 10 -265 2 -71 7 -206 10 -300 3 -93 8 -215 10 -270
3 -55 6 -179 9 -275 4 -163 1 -172 -19 -60 -3 19 -10 51 -16 70 -5 19 -25 103
-44 185 -30 126 -65 252 -181 655 -7 25 -25 86 -39 135 -15 50 -29 97 -30 105
-2 8 -4 15 -5 15 -1 0 -23 74 -49 164 -26 91 -52 166 -57 168 -5 2 -23 -41
-40 -94 -18 -54 -67 -206 -109 -338 -179 -556 -214 -647 -334 -880 -95 -185
-238 -414 -318 -510 -5 -5 -26 -32 -48 -60 -128 -159 -315 -337 -426 -403
l-37 -22 -63 72 c-35 39 -69 76 -74 82 -164 174 -525 649 -660 867 -5 9 -30
49 -55 88 -50 80 -45 71 -122 201 -148 250 -345 645 -469 941 -121 288 -349
934 -349 988 0 10 -3 21 -7 25 -4 3 -8 13 -9 21 -2 14 -44 155 -87 290 -12 39
-22 72 -22 75 -1 3 -9 28 -18 56 -10 28 -19 59 -22 70 -2 10 -22 80 -45 154
-40 129 -113 405 -124 465 -3 16 -10 51 -16 79 -16 81 -20 97 -30 161 -54 341
-12 634 121 830 95 141 277 239 499 270 25 3 52 8 60 10 8 2 38 6 65 9 177 19
203 21 370 31 61 4 112 9 113 10 5 5 473 -3 502 -9z"/>
</g>
</svg>
