<?xml version="1.0" standalone="no"?>
<!DOCTYPE svg PUBLIC "-//W3C//DTD SVG 20010904//EN"
 "http://www.w3.org/TR/2001/REC-SVG-20010904/DTD/svg10.dtd">
<svg version="1.0" xmlns="http://www.w3.org/2000/svg"
 width="1024.000000pt" height="1024.000000pt" viewBox="0 0 1024.000000 1024.000000"
 preserveAspectRatio="xMidYMid meet">
<metadata>
Created by potrace 1.14, written by Peter Selinger 2001-2017
</metadata>
<g transform="translate(0.000000,1024.000000) scale(0.100000,-0.100000)"
fill="#000000" stroke="none">
<path d="M658 9804 c-5 -4 -8 -11 -8 -15 0 -8 92 -38 230 -75 125 -34 584
-188 700 -235 168 -67 482 -223 605 -300 612 -385 1003 -878 1217 -1534 65
-200 103 -387 83 -407 -10 -10 -112 20 -261 75 -448 166 -746 238 -1184 284
-90 9 -549 9 -640 -1 -144 -15 -186 -21 -290 -43 -41 -8 -86 -17 -100 -20
-124 -22 -350 -96 -502 -163 -189 -84 -356 -185 -337 -205 3 -2 41 7 84 21 87
27 357 96 445 113 92 19 104 21 130 26 48 8 206 35 241 41 60 10 581 13 664 4
142 -16 435 -77 525 -110 14 -5 66 -23 115 -41 127 -45 293 -128 396 -199 49
-33 91 -60 95 -60 3 0 3 19 -1 43 -3 23 -8 64 -10 91 l-4 48 32 -5 c85 -14
366 -156 456 -232 90 -74 149 -184 138 -254 -15 -90 -104 -146 -227 -141 -195
7 -191 8 -265 -37 -81 -49 -91 -49 -296 -4 -74 16 -154 33 -179 36 -24 4 -47
8 -50 10 -3 2 -70 15 -150 29 -189 33 -197 34 -250 41 -25 3 -56 7 -70 10 -39
7 -207 29 -310 40 -30 4 -66 8 -80 10 -14 2 -63 7 -110 10 -47 4 -98 9 -115
11 -202 24 -759 24 -881 0 -12 -2 -45 -7 -75 -11 -179 -21 -407 -73 -402 -90
3 -10 27 -11 318 -19 276 -7 475 -15 585 -22 184 -11 237 -14 275 -19 22 -2
72 -7 110 -11 39 -3 77 -8 87 -9 9 -2 38 -6 65 -10 26 -4 98 -16 158 -27 61
-11 121 -22 135 -24 14 -3 113 -27 220 -54 352 -88 605 -182 1000 -372 261
-126 312 -150 317 -145 2 3 -4 31 -13 63 -42 144 -8 258 89 299 53 22 86 19
153 -15 77 -38 151 -104 228 -204 78 -101 103 -143 110 -183 8 -45 -12 -60
-91 -69 -38 -4 -71 -9 -75 -10 -5 -1 -14 -2 -22 -3 -8 0 -27 -11 -42 -24 -25
-22 -26 -26 -15 -58 13 -39 70 -99 116 -122 17 -8 53 -18 80 -22 63 -10 67
-11 126 -25 54 -13 77 -37 144 -150 39 -64 191 -282 232 -330 11 -14 49 -59
83 -100 142 -169 350 -350 404 -350 18 0 18 1 0 28 -21 33 -166 225 -175 232
-4 3 -16 22 -28 43 -11 20 -30 53 -41 72 -39 68 -61 155 -65 252 -3 80 -1 104
19 159 45 122 94 190 290 398 163 174 173 186 194 227 52 103 167 309 173 309
3 0 41 -69 84 -152 121 -236 140 -262 300 -396 222 -187 301 -308 312 -477 6
-92 -17 -189 -68 -285 -57 -105 -90 -148 -202 -264 -102 -104 -107 -121 -30
-95 98 32 269 184 426 380 71 88 211 294 296 434 43 70 69 91 140 111 117 32
189 65 226 102 47 47 28 68 -77 88 -86 16 -119 38 -136 88 -18 55 10 110 100
197 85 82 175 145 279 193 104 49 162 51 209 9 47 -42 49 -86 10 -218 -18 -61
-37 -118 -42 -128 -9 -17 -7 -18 14 -12 12 4 139 59 280 121 661 293 1103 447
1423 498 61 10 309 21 665 31 394 10 777 24 805 30 11 2 29 4 40 5 31 3 -59
31 -140 44 -59 10 -103 15 -170 22 -33 3 -76 7 -95 9 -155 16 -318 20 -725 20
-409 0 -557 -5 -648 -20 -12 -2 -44 -7 -72 -10 -27 -3 -88 -12 -135 -20 -47
-8 -105 -17 -130 -20 -25 -4 -112 -20 -195 -35 -82 -16 -166 -32 -185 -35 -19
-3 -53 -10 -75 -15 -22 -5 -56 -12 -75 -15 -19 -3 -60 -10 -90 -15 -54 -9
-112 -13 -158 -11 -16 1 -27 11 -37 35 -8 19 -19 37 -23 40 -16 10 -66 15
-182 21 -129 6 -155 9 -187 26 -54 29 -63 135 -20 224 41 83 135 177 219 218
86 42 257 102 326 115 96 17 120 -22 56 -96 -56 -65 -34 -57 156 58 134 81
240 134 361 179 97 36 305 92 392 105 20 3 54 9 75 12 20 3 48 7 62 10 47 8
225 18 325 18 103 0 313 -12 324 -18 3 -2 29 -6 56 -10 28 -3 61 -8 75 -11 14
-2 39 -7 55 -10 17 -3 100 -21 185 -40 85 -19 241 -52 345 -75 105 -22 198
-42 208 -44 42 -10 10 17 -70 57 -253 127 -550 232 -773 271 -14 2 -52 9 -85
15 -33 6 -82 13 -110 17 -27 3 -61 7 -75 9 -167 25 -708 24 -905 -1 -45 -6
-303 -57 -347 -69 -10 -3 -28 -7 -39 -10 -12 -2 -36 -9 -54 -15 -18 -6 -42
-13 -54 -15 -86 -16 -470 -152 -576 -203 -96 -47 -189 -84 -213 -85 -26 -2
-27 0 -27 53 -2 169 197 709 355 965 40 66 151 221 202 281 151 182 410 433
583 565 395 302 1094 608 1675 734 8 2 26 8 40 14 18 7 -28 10 -175 9 -188 0
-352 -14 -470 -38 -28 -6 -64 -13 -79 -16 -146 -26 -479 -129 -691 -214 -245
-98 -647 -295 -757 -372 -14 -10 -28 -18 -31 -18 -5 0 -366 -206 -422 -242
-22 -14 -45 -27 -50 -29 -37 -15 -204 -123 -200 -129 3 -4 19 -10 37 -14 45
-8 169 -49 192 -62 26 -15 18 -40 -48 -150 -102 -173 -162 -288 -239 -459
-149 -335 -229 -604 -252 -850 -3 -27 -8 -72 -11 -100 -5 -54 -6 -340 0 -390
2 -16 7 -66 11 -110 4 -44 8 -82 10 -85 3 -6 17 -137 19 -185 3 -60 -45 -156
-137 -275 -161 -207 -379 -239 -582 -87 -229 171 -473 651 -538 1057 -8 51
-13 146 -11 235 2 151 -3 175 -35 175 -20 0 -38 -27 -46 -71 -7 -39 -9 -52
-18 -99 -4 -19 -9 -48 -12 -65 -8 -51 -44 -249 -50 -275 -2 -14 -7 -38 -11
-55 -59 -298 -167 -585 -280 -740 -82 -114 -142 -166 -251 -217 -62 -30 -76
-33 -169 -33 -96 0 -103 2 -178 39 -99 48 -217 163 -261 251 -27 56 -29 69
-31 184 -1 67 2 139 7 160 4 20 10 59 13 86 3 28 9 79 13 115 10 82 10 417 1
490 -6 48 -15 97 -32 187 -12 58 -59 219 -90 305 -66 181 -260 589 -361 758
-18 30 -44 77 -58 104 l-26 48 52 40 c29 21 77 46 107 55 30 8 58 21 62 27 41
64 -824 544 -1390 770 -383 154 -827 270 -1147 301 -38 4 -81 8 -95 11 -58 9
-246 15 -252 8z"/>
<path d="M2768 5705 c-2 -1 -38 -5 -81 -8 -68 -6 -117 -19 -117 -32 0 -8 37
-24 66 -29 16 -3 70 -12 119 -20 241 -41 383 -85 581 -182 205 -100 248 -150
269 -309 3 -22 8 -56 11 -75 2 -19 7 -53 9 -75 26 -225 165 -427 389 -565 45
-28 131 -71 191 -96 61 -25 119 -49 130 -54 11 -4 63 -22 115 -40 237 -81 507
-260 568 -375 16 -31 11 -84 -17 -164 -46 -133 -107 -357 -117 -431 -3 -19 -9
-57 -14 -85 -21 -117 4 -420 35 -420 15 0 42 84 111 340 36 132 69 251 74 265
4 14 16 52 26 86 32 113 56 121 91 28 32 -87 97 -302 133 -439 58 -223 73
-275 88 -302 23 -41 31 30 27 242 -2 116 -5 219 -8 230 -3 11 -8 40 -12 65
-16 100 -55 223 -111 356 -25 60 -48 117 -51 126 -5 16 46 96 112 178 56 70
236 238 280 261 45 24 133 49 225 63 323 50 530 178 669 413 43 74 96 215 106
284 4 24 8 46 10 49 2 3 6 33 10 67 17 157 45 201 190 298 214 143 475 244
695 269 25 3 71 8 102 12 124 14 78 59 -72 71 -162 12 -385 -50 -635 -177
-125 -64 -290 -160 -330 -193 -5 -4 -40 -30 -77 -56 -61 -44 -208 -162 -248
-200 -10 -9 -206 -203 -436 -432 -558 -553 -669 -650 -729 -635 -13 3 -59 34
-102 68 -79 63 -583 562 -880 873 -90 94 -210 208 -268 255 -58 47 -115 93
-128 104 -58 48 -282 189 -372 234 -211 104 -363 147 -557 156 -37 2 -69 2
-70 1z m1140 -651 c29 -20 58 -78 67 -134 4 -25 9 -54 11 -65 2 -11 5 -38 5
-60 2 -50 13 -72 41 -81 36 -12 61 -5 85 24 l21 27 69 -70 c86 -86 203 -231
203 -250 0 -16 -20 -14 -130 10 -184 42 -324 141 -394 278 -52 103 -68 257
-32 312 19 29 24 30 54 9z m2572 -14 c11 -7 15 -29 15 -82 0 -102 -8 -139 -46
-214 -76 -147 -240 -261 -457 -315 -96 -24 -92 10 17 146 92 114 149 175 165
175 8 0 19 -7 26 -15 15 -18 73 -35 99 -28 20 5 26 27 36 128 6 66 23 136 38
155 18 23 68 60 81 60 6 0 18 -5 26 -10z"/>
<path d="M2443 5380 c-107 -28 -210 -86 -315 -179 -58 -52 -144 -164 -129
-169 12 -4 137 43 156 58 17 13 187 78 250 95 93 25 237 30 331 11 160 -33
269 -108 365 -254 121 -184 126 -407 12 -498 -93 -74 -89 -91 54 -231 242
-239 689 -492 959 -542 84 -16 63 15 -83 120 -48 35 -92 67 -98 71 -238 186
-349 304 -420 452 -81 166 -89 318 -31 575 l23 102 -56 54 c-177 169 -367 268
-636 330 -108 26 -294 28 -382 5z"/>
<path d="M7514 5380 c-93 -21 -166 -50 -317 -127 -99 -51 -272 -157 -302 -186
-7 -7 -24 -22 -38 -33 -22 -20 -24 -26 -17 -65 12 -65 20 -109 26 -154 3 -22
8 -51 10 -65 3 -14 7 -65 9 -115 10 -213 -69 -398 -242 -566 -106 -104 -108
-106 -338 -273 -92 -67 -125 -99 -125 -120 0 -16 16 -15 112 10 72 18 260 94
352 141 237 123 535 361 637 510 36 52 35 74 -5 84 -68 18 -117 105 -121 212
-3 97 9 150 56 245 76 155 230 279 393 317 171 40 317 18 531 -80 44 -20 104
-48 133 -61 57 -26 82 -30 82 -13 0 14 -72 103 -120 147 -82 78 -252 174 -331
187 -19 3 -41 8 -50 11 -10 2 -70 6 -135 8 -88 3 -140 -1 -200 -14z"/>
<path d="M3550 4626 c0 -2 14 -46 30 -97 56 -171 119 -258 326 -450 61 -56
302 -250 379 -304 32 -22 63 -49 71 -60 12 -18 58 -166 68 -219 2 -11 16 -83
30 -159 41 -219 55 -271 167 -609 38 -114 71 -220 74 -235 3 -15 8 -44 12 -63
11 -58 8 -161 -7 -227 -18 -81 -6 -97 40 -56 46 41 68 114 65 221 -2 48 -5
103 -9 122 -4 19 -11 62 -17 95 -5 33 -17 89 -25 125 -9 36 -18 76 -20 90 -3
14 -11 54 -19 90 -25 116 -30 190 -30 470 0 285 4 350 24 374 18 21 21 88 5
118 -20 39 -60 56 -214 95 -215 54 -379 133 -560 269 -118 89 -203 179 -295
313 -39 55 -76 101 -82 101 -7 0 -13 -2 -13 -4z"/>
<path d="M6719 4603 c-14 -15 -51 -65 -82 -110 -32 -44 -97 -121 -146 -170
-191 -190 -399 -308 -686 -388 -143 -40 -216 -74 -235 -111 -12 -21 -9 -32 21
-96 l34 -73 0 -240 c0 -321 -10 -412 -80 -733 -43 -200 -47 -225 -46 -334 0
-66 5 -99 20 -133 20 -46 62 -95 81 -95 13 0 13 38 0 76 -24 72 -14 200 25
339 9 33 52 170 95 305 82 256 105 335 115 410 4 25 11 68 16 95 6 28 12 68
15 90 9 72 45 189 69 230 25 42 65 79 210 190 50 38 92 72 95 75 3 3 28 23 55
44 28 22 98 88 157 148 155 156 240 283 282 420 24 78 19 98 -15 61z"/>
<path d="M4170 3311 c0 -4 20 -55 45 -111 46 -105 100 -254 109 -300 2 -14 9
-47 15 -75 5 -27 12 -79 16 -115 3 -36 8 -83 10 -105 10 -89 6 -371 -5 -400
-24 -64 -44 -60 -134 25 -85 81 -68 89 -173 -70 -131 -196 -142 -239 -86 -321
30 -42 42 -57 101 -124 25 -28 65 -81 134 -175 82 -113 260 -416 511 -870 58
-105 102 -174 114 -177 27 -9 -18 178 -84 347 -51 131 -230 497 -359 735 -127
235 -185 355 -179 366 9 13 81 49 99 49 9 0 41 -12 73 -26 73 -33 133 -36 163
-9 22 20 22 23 16 202 -4 100 -9 192 -11 205 -2 13 -6 54 -10 91 -3 37 -8 76
-10 86 -2 10 -6 41 -10 69 -5 40 -37 191 -60 282 -42 168 -142 348 -220 396
-41 26 -65 35 -65 25z"/>
<path d="M6082 3295 c-96 -55 -174 -188 -235 -400 -14 -49 -28 -102 -31 -118
-24 -131 -29 -162 -41 -252 -2 -16 -6 -66 -10 -110 -4 -44 -8 -98 -10 -120 -2
-22 -7 -101 -10 -175 -4 -74 -8 -150 -10 -167 l-2 -33 56 0 c41 0 69 7 103 25
50 27 106 32 141 14 62 -33 53 -74 -68 -294 -167 -305 -458 -921 -470 -995 0
-3 -11 -38 -24 -79 -24 -76 -32 -126 -24 -148 11 -28 31 -10 58 50 26 56 111
218 188 357 17 30 41 75 55 100 229 417 423 703 601 889 l41 43 -29 56 c-74
147 -201 352 -217 352 -3 0 -30 -27 -61 -61 -31 -33 -69 -67 -84 -75 -26 -13
-30 -13 -48 5 -11 11 -23 41 -27 68 -14 90 -7 397 11 463 2 8 7 35 10 60 22
161 95 378 165 492 29 47 38 78 23 78 -5 0 -27 -11 -51 -25z"/>
<path d="M5538 1875 c-134 -34 -243 -156 -292 -329 -37 -127 -36 -172 8 -283
51 -131 47 -176 -16 -209 -48 -25 -95 -28 -143 -10 -54 21 -87 56 -90 97 -2
30 28 132 46 155 32 40 51 173 35 244 -13 60 -78 168 -132 223 -80 80 -145
110 -238 110 -87 0 -144 -24 -217 -93 -54 -52 -67 -86 -48 -132 30 -73 172
-178 241 -178 15 0 28 3 28 7 0 3 -16 29 -34 57 -49 72 -54 99 -22 130 38 39
86 35 135 -10 53 -48 76 -109 76 -205 -1 -89 -17 -120 -113 -211 -95 -89 -96
-72 10 -195 51 -59 95 -110 98 -113 39 -34 181 -249 250 -380 44 -84 45 -85
61 -48 43 104 186 335 282 453 55 67 138 151 157 157 25 8 -4 52 -110 168 -93
102 -95 242 -5 348 53 64 133 84 166 43 22 -27 15 -50 -41 -129 -22 -30 -40
-64 -40 -75 0 -17 5 -18 38 -12 57 10 150 64 183 106 59 75 81 188 44 229 -22
24 -122 76 -163 85 -57 12 -108 12 -154 0z"/>
</g>
</svg>
